<svg width="1024" height="1024" viewBox="0 0 1024 1024" fill="none" xmlns="http://www.w3.org/2000/svg">
<g clip-path="url(#clip0_1_3040)">
<rect width="1024" height="1024" rx="220" fill="white"/>
<g clip-path="url(#clip1_1_3040)">
<path d="M543.629 505.455C187.629 505.455 282.608 -1022.26 -61.1384 194.411C-226.195 451.184 -159.097 1270.25 516.072 1138.82C872.072 1138.82 1250.5 933 1161 500.347C1161 147.908 899.629 505.455 543.629 505.455ZM167.811 451.185C178.775 375.206 212.956 306.889 266.485 253.257C395.471 126.2 598.623 119.176 736.637 230.271V169.616C736.637 143.439 758.565 121.73 785.007 121.73C811.449 121.73 833.377 143.439 833.377 169.616V340.09C833.377 366.267 811.449 387.975 785.007 387.975H612.811C586.369 387.975 564.441 366.267 564.441 340.09C564.441 313.912 586.369 292.204 612.811 292.204H661.181C611.936 258.247 552.197 242.518 492.42 247.771C432.643 253.023 376.636 278.923 334.202 320.935C295.507 359.244 270.999 409.045 262.615 464.593C259.391 488.216 238.753 505.455 214.891 505.455C212.311 505.455 210.376 505.455 207.797 504.817C195.316 502.942 184.097 496.242 176.6 486.187C169.104 476.132 165.943 463.544 167.811 451.185ZM765.659 747.438C732.916 779.917 694.007 805.663 651.172 823.196C608.337 840.728 562.423 849.699 516.072 849.594C437.391 849.594 359.355 822.14 294.862 770.423V830.44C294.862 856.617 272.934 878.326 246.492 878.326C220.05 878.326 198.123 856.617 198.123 830.44V659.966C198.123 633.789 220.05 612.081 246.492 612.081H418.688C445.13 612.081 467.057 633.789 467.057 659.966C467.057 686.144 445.13 707.852 418.688 707.852H370.318C470.282 776.808 608.297 767.231 697.297 679.121C735.992 640.812 760.5 591.011 768.884 535.463C772.753 509.286 796.616 490.77 823.703 494.601C850.145 498.432 868.203 522.694 864.978 548.872C853.369 626.127 819.188 694.444 765.659 747.438Z" fill="#292929"/>
</g>
</g>
<defs>
<clipPath id="clip0_1_3040">
<rect width="1024" height="1024" rx="220" fill="white"/>
</clipPath>
<clipPath id="clip1_1_3040">
<rect width="1025" height="1025" fill="white" transform="translate(-1 -1)"/>
</clipPath>
</defs>
</svg>
